# File created by Blade
# Date/Time:  Wed Jan 21 14:37:15 2015
# Frame Rate: 120.000 fps
#------------------------------------------------------
:FULLY-SPECIFIED
:DEGREES
946
root 18.762130 35.489216 -22.111311 -171.951332 -2.401941 -178.558665
Spine -17.129495 -2.055740 1.708698
Head 6.766108 -0.667367 2.436009
LeftShoulder -14.894240 -36.095084 23.860920
LeftArm -5.195693 3.298915 -9.953594
LeftForeArm 20.543962 0.000000 -1.588416
LeftHand -5.466464 -0.000000 -5.468027
LeftHandThumb1 -26.253704 0.000000 33.147579
RightShoulder -12.258124 1.035658 -12.705057
RightArm 0.456095 39.571816 12.388989
RightForeArm -38.420640 -0.000000 6.152940
RightHand -4.465874 0.000000 8.792407
RightHandThumb1 -24.326973 -0.000000 -32.862282
LeftUpLeg -0.141450 12.204011 1.745350
LeftLeg -6.249852 -0.000000 0.000000
LeftFoot -20.459722 29.434713 -11.991842
LeftToeBase 26.987436 -0.000000 -0.000000
RightUpLeg -0.635802 -9.184429 1.828771
RightLeg -3.627017 -0.000000 0.000000
RightFoot -20.898696 -26.231376 14.109019
RightToeBase 23.760042 -0.000000 -0.000000
947
root 18.760668 35.488827 -22.113749 -171.945562 -2.405148 -178.567106
Spine -17.128225 -2.073786 1.715775
Head 6.761969 -0.642712 2.417223
LeftShoulder -14.914481 -36.082351 23.863234
LeftArm -5.188681 3.298818 -9.972578
LeftForeArm 20.513953 -0.000000 -1.589184
LeftHand -5.458889 -0.000000 -5.497631
LeftHandThumb1 -26.253704 0.000000 33.147579
RightShoulder -12.244899 1.051257 -12.721030
RightArm 0.441757 39.578959 12.388034
RightForeArm -38.424378 -0.000000 6.156574
RightHand -4.496285 -0.000000 8.781496
RightHandThumb1 -24.326973 -0.000000 -32.862282
LeftUpLeg -0.141862 12.202625 1.735256
LeftLeg -6.254293 -0.000000 0.000000
LeftFoot -20.464418 29.443170 -12.015468
LeftToeBase 26.772951 -0.000000 -0.000000
RightUpLeg -0.635740 -9.177684 1.818360
RightLeg -3.627991 -0.000000 0.000000
RightFoot -20.906446 -26.247919 14.098538
RightToeBase 23.782793 -0.000000 -0.000000
948
root 18.759016 35.488389 -22.116884 -171.943415 -2.408594 -178.565901
Spine -17.122865 -2.076192 1.732350
Head 6.760399 -0.614887 2.398077
LeftShoulder -14.925361 -36.057219 23.843877
LeftArm -5.163461 3.300180 -9.989318
LeftForeArm 20.446967 -0.000000 -1.595982
LeftHand -5.432394 0.000000 -5.537224
LeftHandThumb1 -26.253704 0.000000 33.147579
RightShoulder -12.239570 1.053518 -12.731631
RightArm 0.414472 39.544682 12.365882
RightForeArm -38.377653 -0.000000 6.162218
RightHand -4.469967 -0.000000 8.782797
RightHandThumb1 -24.326973 -0.000000 -32.862282
LeftUpLeg -0.139959 12.213401 1.734557
LeftLeg -6.251166 -0.000000 0.000000
LeftFoot -20.476419 29.421283 -12.005658
LeftToeBase 26.926456 -0.000000 -0.000000
RightUpLeg -0.627554 -9.164047 1.815702
RightLeg -3.636964 -0.000000 0.000000
RightFoot -20.905194 -26.258444 14.103862
RightToeBase 23.853868 -0.000000 -0.000000
949
root 18.757070 35.487853 -22.119913 -171.943414 -2.423641 -178.572585
Spine -17.117559 -2.104191 1.744429
Head 6.757615 -0.596777 2.378205
LeftShoulder -14.941786 -36.047812 23.841481
LeftArm -5.156414 3.302049 -10.008477
LeftForeArm 20.428541 -0.000000 -1.612050
LeftHand -5.387210 0.000000 -5.556088
LeftHandThumb1 -26.253704 0.000000 33.147579
RightShoulder -12.229895 1.060629 -12.739711
RightArm 0.407867 39.562845 12.359357
RightForeArm -38.378333 -0.000000 6.172458
RightHand -4.492372 -0.000000 8.787145
RightHandThumb1 -24.326973 -0.000000 -32.862282
LeftUpLeg -0.137060 12.216381 1.726332
LeftLeg -6.253008 -0.000000 0.000000
LeftFoot -20.464636 29.408389 -11.994902
LeftToeBase 26.957068 -0.000000 -0.000000
RightUpLeg -0.616450 -9.180668 1.807562
RightLeg -3.644857 -0.000000 0.000000
RightFoot -20.916762 -26.254761 14.137414
RightToeBase 23.817762 -0.000000 -0.000000
950
root 18.755849 35.487384 -22.123655 -171.936444 -2.427156 -178.572322
Spine -17.119855 -2.111694 1.758736
Head 6.753919 -0.567826 2.367173
LeftShoulder -14.963954 -36.030061 23.838780
LeftArm -5.131153 3.295745 -10.031413
LeftForeArm 20.371127 0.000000 -1.636126
LeftHand -5.407855 0.000000 -5.491761
LeftHandThumb1 -26.253704 0.000000 33.147579
RightShoulder -12.240593 1.041447 -12.742490
RightArm 0.426935 39.606607 12.367632
RightForeArm -38.367437 -0.000000 6.176576
RightHand -4.516813 0.000000 8.772717
RightHandThumb1 -24.326973 -0.000000 -32.862282
LeftUpLeg -0.136448 12.226295 1.724466
LeftLeg -6.256664 -0.000000 0.000000
LeftFoot -20.468446 29.394006 -11.974603
LeftToeBase 27.015490 -0.000000 -0.000000
RightUpLeg -0.614527 -9.189291 1.807562
RightLeg -3.652045 -0.000000 0.000000
RightFoot -20.904730 -26.253736 14.111874
RightToeBase 23.767389 -0.000000 -0.000000
951
root 18.754721 35.486745 -22.126196 -171.929980 -2.428963 -178.569366
Spine -17.116567 -2.118913 1.773613
Head 6.725571 -0.549034 2.367863
LeftShoulder -14.990914 -36.028274 23.847031
LeftArm -5.113686 3.288589 -10.054694
LeftForeArm 20.340416 -0.000000 -1.646955
LeftHand -5.426177 -0.000000 -5.520767
LeftHandThumb1 -26.253704 0.000000 33.147579
RightShoulder -12.239821 1.075714 -12.758387
RightArm 0.410970 39.607204 12.359782
RightForeArm -38.370417 -0.000000 6.181367
RightHand -4.496872 -0.000000 8.759954
RightHandThumb1 -24.326973 -0.000000 -32.862282
LeftUpLeg -0.139321 12.238816 1.725796
LeftLeg -6.254032 -0.000000 0.000000
LeftFoot -20.475032 29.372006 -11.978715
LeftToeBase 26.961985 -0.000000 -0.000000
RightUpLeg -0.614489 -9.190604 1.808684
RightLeg -3.652822 -0.000000 0.000000
RightFoot -20.910463 -26.258843 14.106359
RightToeBase 23.806890 -0.000000 -0.000000
952
root 18.753087 35.486180 -22.129474 -171.927173 -2.442121 -178.573691
Spine -17.116022 -2.136444 1.783155
Head 6.727126 -0.531746 2.350692
LeftShoulder -14.992569 -36.031620 23.837458
LeftArm -5.115095 3.300706 -10.065069
LeftForeArm 20.295032 -0.000000 -1.656991
LeftHand -5.436316 -0.000000 -5.525157
LeftHandThumb1 -26.253704 0.000000 33.147579
RightShoulder -12.235912 1.091571 -12.756025
RightArm 0.395697 39.578343 12.324316
RightForeArm -38.320293 -0.000000 6.184677
RightHand -4.485089 -0.000000 8.797737
RightHandThumb1 -24.326973 -0.000000 -32.862282
LeftUpLeg -0.139393 12.235534 1.720064
LeftLeg -6.253524 -0.000000 0.000000
LeftFoot -20.477679 29.363895 -11.974871
LeftToeBase 26.980823 -0.000000 -0.000000
RightUpLeg -0.606971 -9.208845 1.804908
RightLeg -3.663331 -0.000000 0.000000
RightFoot -20.910181 -26.257868 14.102030
RightToeBase 23.794313 -0.000000 -0.000000
953
root 18.751497 35.485586 -22.133577 -171.926632 -2.444552 -178.576291
Spine -17.113344 -2.144103 1.792139
Head 6.716232 -0.532973 2.335274
LeftShoulder -14.997745 -36.025404 23.825624
LeftArm -5.114842 3.341256 -10.075953
LeftForeArm 20.211295 -0.000000 -1.651845
LeftHand -5.460365 -0.000000 -5.547022
LeftHandThumb1 -26.253704 0.000000 33.147579
RightShoulder -12.240148 1.113035 -12.768806
RightArm 0.394562 39.561651 12.321814
RightForeArm -38.308161 -0.000000 6.190750
RightHand -4.475114 -0.000000 8.797381
RightHandThumb1 -24.326973 -0.000000 -32.862282
LeftUpLeg -0.131687 12.256585 1.716990
LeftLeg -6.258772 -0.000000 0.000000
LeftFoot -20.466433 29.350416 -11.951470
LeftToeBase 26.976303 -0.000000 -0.000000
RightUpLeg -0.594474 -9.202834 1.799900
RightLeg -3.674832 -0.000000 0.000000
RightFoot -20.915644 -26.271018 14.112965
RightToeBase 23.722588 -0.000000 -0.000000
954
root 18.750388 35.484977 -22.137045 -171.923631 -2.457257 -178.573473
Spine -17.113689 -2.160816 1.804022
Head 6.712002 -0.498462 2.339117
LeftShoulder -15.002665 -36.027625 23.824102
LeftArm -5.118996 3.354015 -10.089387
LeftForeArm 20.184614 -0.000000 -1.652640
LeftHand -5.397158 -0.000000 -5.630378
LeftHandThumb1 -26.253704 0.000000 33.147579
RightShoulder -12.236547 1.110989 -12.766349
RightArm 0.385899 39.561598 12.308292
RightForeArm -38.283885 -0.000000 6.203426
RightHand -4.491057 -0.000000 8.785718
RightHandThumb1 -24.326973 -0.000000 -32.862282
LeftUpLeg -0.127158 12.243155 1.719955
LeftLeg -6.265167 -0.000000 0.000000
LeftFoot -20.479790 29.347844 -11.964089
LeftToeBase 26.997364 -0.000000 -0.000000
RightUpLeg -0.591151 -9.213339 1.802466
RightLeg -3.674619 -0.000000 0.000000
RightFoot -20.919836 -26.273706 14.095171
RightToeBase 23.797317 -0.000000 -0.000000
955
root 18.748764 35.484177 -22.141011 -171.925910 -2.464681 -178.573310
Spine -17.105736 -2.172459 1.817939
Head 6.692878 -0.498425 2.324589
LeftShoulder -15.013005 -36.026054 23.811437
LeftArm -5.115451 3.353730 -10.093042
LeftForeArm 20.148431 -0.000000 -1.658248
LeftHand -5.390759 -0.000000 -5.637855
LeftHandThumb1 -26.253704 0.000000 33.147579
RightShoulder -12.230334 1.134585 -12.773911
RightArm 0.360852 39.501264 12.281244
RightForeArm -38.234191 -0.000000 6.221537
RightHand -4.494783 -0.000000 8.785837
RightHandThumb1 -24.326973 -0.000000 -32.862282
LeftUpLeg -0.117182 12.246048 1.720052
LeftLeg -6.268841 -0.000000 0.000000
LeftFoot -20.479509 29.343247 -11.938013
LeftToeBase 26.978515 -0.000000 -0.000000
RightUpLeg -0.576005 -9.226678 1.800929
RightLeg -3.685946 -0.000000 0.000000
RightFoot -20.925110 -26.276208 14.098757
RightToeBase 23.832454 -0.000000 -0.000000
956
root 18.747257 35.483626 -22.144759 -171.926712 -2.468180 -178.573521
Spine -17.099857 -2.186003 1.827528
Head 6.683370 -0.479782 2.323295
LeftShoulder -15.025664 -36.004074 23.805641
LeftArm -5.115001 3.334534 -10.100947
LeftForeArm 20.132006 0.000000 -1.653253
LeftHand -5.406075 -0.000000 -5.664161
LeftHandThumb1 -26.253704 0.000000 33.147579
RightShoulder -12.239176 1.120946 -12.775522
RightArm 0.395766 39.550537 12.302130
RightForeArm -38.238366 -0.000000 6.230484
RightHand -4.515806 -0.000000 8.810353
RightHandThumb1 -24.326973 -0.000000 -32.862282
LeftUpLeg -0.108021 12.251339 1.719595
LeftLeg -6.272243 -0.000000 0.000000
LeftFoot -20.477205 29.332395 -11.924239
LeftToeBase 27.003655 -0.000000 -0.000000
RightUpLeg -0.566709 -9.222667 1.798713
RightLeg -3.690380 -0.000000 0.000000
RightFoot -20.932334 -26.282763 14.111701
RightToeBase 23.820203 -0.000000 -0.000000
